<svg xmlns="http://www.w3.org/2000/svg" width="140.48" height="27.287" viewBox="0 0 140.48 27.287"><defs><style>.a{fill:#930549;}.b{fill:#333;}</style></defs><g transform="translate(-0.01 0.018)"><g transform="translate(0.01 -0.018)"><g transform="translate(0 0)"><path class="a" d="M5.125,86.609A12.025,12.025,0,0,1,5.4,84.1a8.455,8.455,0,0,0-3.382.731,3.409,3.409,0,0,0-1.789,4.3,12.115,12.115,0,0,0,5.531,6.392h-2.6a1.525,1.525,0,0,0-1.527,1.527H8.943A16.146,16.146,0,0,1,5.1,86.609Z" transform="translate(-0.01 -74.924)"/><path class="a" d="M235.527,89.129a3.419,3.419,0,0,0-1.789-4.3,8.455,8.455,0,0,0-3.382-.731,11.944,11.944,0,0,1,.273,2.509h.011a16.109,16.109,0,0,1-3.84,10.44h7.309a1.525,1.525,0,0,0-1.527-1.527H230a12.363,12.363,0,0,0,2.727-2.04A12,12,0,0,0,235.527,89.129Z" transform="translate(-202.06 -74.924)"/><path class="a" d="M81.21,11.667a10.1,10.1,0,0,0-.72-3.774,10.235,10.235,0,0,0-1.549-2.585,3.56,3.56,0,0,0,.425-1.92A3.617,3.617,0,0,0,72.68,1.7a10.775,10.775,0,0,0-3.349,0,3.61,3.61,0,0,0-6.676,1.691,3.56,3.56,0,0,0,.425,1.92,10.116,10.116,0,0,0-1.462,2.378c-.011.022-.011.033-.022.055s-.011.033-.022.044a10.225,10.225,0,0,0-.764,3.883H60.8a14.6,14.6,0,0,0,4.4,10.44h.011a12.993,12.993,0,0,0,1.2,1h-.349a.764.764,0,0,0,0,1.527h1.211l-1.331,1.331a.77.77,0,0,0,0,1.08h0a.77.77,0,0,0,1.08,0l1.331-1.331V26.3a.764.764,0,0,0,1.527,0v-.84a3.433,3.433,0,0,0-1.625-2.913c-.218-.131-.436-.273-.644-.425h0a12.393,12.393,0,0,1-2.771-2.673h.011a8.468,8.468,0,0,0,12.349,0h.011a12.874,12.874,0,0,1-2.771,2.673h0c-.207.153-.425.295-.644.425a3.447,3.447,0,0,0-1.625,2.913v.84a.764.764,0,0,0,1.527,0v-.578l1.331,1.331a.77.77,0,0,0,1.08,0h0a.77.77,0,0,0,0-1.08l-1.364-1.331h1.211a.764.764,0,0,0,0-1.527h-.338c.415-.316.818-.655,1.2-1h.011a14.6,14.6,0,0,0,4.4-10.44H81.21ZM64.923,3.606a1.331,1.331,0,1,1,1.331,1.331A1.336,1.336,0,0,1,64.923,3.606Zm9.043,6.971a6.216,6.216,0,0,1-1.56.065c-.065,0-.131-.011-.2-.011l-.175-.011c-.12-.011-.229-.022-.349-.022-.229-.011-.458-.022-.687-.022s-.458,0-.687.022c-.12,0-.229.011-.349.022l-.175.011c-.022,0-.065.011-.1.011l-.1.011a6.216,6.216,0,0,1-1.56-.065,5.513,5.513,0,0,1-2.749-1.265,11.81,11.81,0,0,0,1.429.284,8.652,8.652,0,0,0,1.4.087h.175l.175-.011c.109,0,.229-.011.338-.022.229-.022.447-.044.676-.087l.175-.033.2-.033c.131-.022.251-.033.382-.044.262-.022.513-.033.775-.033s.513.011.775.033c.131.011.262.033.382.044l.2.033c.065.011.109.022.175.033.218.044.447.055.676.087.109.011.229.022.338.022l.175.011h.175a8.675,8.675,0,0,0,1.4-.1,14.37,14.37,0,0,0,1.429-.284A5.556,5.556,0,0,1,73.967,10.576Zm1.8-5.64A1.331,1.331,0,1,1,77.1,3.606,1.336,1.336,0,0,1,75.767,4.937Z" transform="translate(-54.169 0.018)"/></g><g transform="translate(39.117 2.729)"><path class="a" d="M364.305,59.452c-.938,0-1.876-.033-2.8-.087a20.341,20.341,0,0,1-2.9-.4V42.347a23.917,23.917,0,0,1,2.6-.338c.938-.076,1.811-.109,2.618-.109a17.06,17.06,0,0,1,3,.24,6.9,6.9,0,0,1,2.356.807,4.246,4.246,0,0,1,1.549,1.494,4.359,4.359,0,0,1,.556,2.28,3.636,3.636,0,0,1-1.974,3.24,4.036,4.036,0,0,1,2.225,1.68,4.86,4.86,0,0,1,.589,2.4,4.589,4.589,0,0,1-1.964,4.047A10.335,10.335,0,0,1,364.305,59.452Zm-1.953-10.625h1.876a5.2,5.2,0,0,0,2.542-.458,1.581,1.581,0,0,0,.764-1.473,1.527,1.527,0,0,0-.785-1.462,5.008,5.008,0,0,0-2.324-.425c-.327,0-.687,0-1.058.011s-.72.033-1.014.065Zm0,2.934v4.418c.284.033.589.055.916.076s.687.022,1.091.022a6.711,6.711,0,0,0,2.793-.491,1.828,1.828,0,0,0,1.058-1.833,1.785,1.785,0,0,0-.895-1.691,5.19,5.19,0,0,0-2.542-.5Z" transform="translate(-358.6 -40.056)"/><path class="a" d="M502.407,29.471a2.01,2.01,0,0,1-.655,1.593,2.223,2.223,0,0,1-1.549.578,2.274,2.274,0,0,1-1.549-.578,2.265,2.265,0,0,1,0-3.185,2.364,2.364,0,0,1,3.1,0A2.01,2.01,0,0,1,502.407,29.471Zm-.349,16.745h-3.676V33.223h3.676Z" transform="translate(-482.793 -27.049)"/><path class="a" d="M558.411,47.089l3.676-.589v3.829h4.418v3.065h-4.418v4.571a3.625,3.625,0,0,0,.4,1.854,1.757,1.757,0,0,0,1.647.687,6.778,6.778,0,0,0,1.222-.109,6.231,6.231,0,0,0,1.145-.305l.524,2.869a9.891,9.891,0,0,1-1.484.469,8.69,8.69,0,0,1-2,.2,6.617,6.617,0,0,1-2.5-.4,3.989,3.989,0,0,1-1.582-1.134,4.277,4.277,0,0,1-.829-1.767,10.654,10.654,0,0,1-.24-2.3V47.089Z" transform="translate(-536.605 -44.155)"/><path class="b" d="M658.605,59.452c-.938,0-1.876-.033-2.8-.087a20.339,20.339,0,0,1-2.9-.4V42.347a23.914,23.914,0,0,1,2.6-.338c.938-.076,1.811-.109,2.618-.109a17.059,17.059,0,0,1,3,.24,6.9,6.9,0,0,1,2.356.807,4.248,4.248,0,0,1,1.549,1.494,4.359,4.359,0,0,1,.556,2.28,3.636,3.636,0,0,1-1.974,3.24,4.036,4.036,0,0,1,2.225,1.68,4.859,4.859,0,0,1,.589,2.4,4.589,4.589,0,0,1-1.964,4.047A10.31,10.31,0,0,1,658.605,59.452Zm-1.953-10.625h1.876a5.2,5.2,0,0,0,2.542-.458,1.581,1.581,0,0,0,.764-1.473,1.527,1.527,0,0,0-.785-1.462,5.009,5.009,0,0,0-2.324-.425c-.327,0-.687,0-1.058.011s-.72.033-1.014.065Zm0,2.934v4.418c.284.033.589.055.916.076s.687.022,1.091.022a6.711,6.711,0,0,0,2.793-.491,1.828,1.828,0,0,0,1.058-1.833,1.785,1.785,0,0,0-.894-1.691,5.191,5.191,0,0,0-2.542-.5Z" transform="translate(-620.796 -40.056)"/><path class="b" d="M805.625,94.156a18.8,18.8,0,0,1-2.422.5,20.408,20.408,0,0,1-3.109.24,7.5,7.5,0,0,1-2.76-.447,4.242,4.242,0,0,1-1.745-1.244,4.985,4.985,0,0,1-.916-1.92,10.1,10.1,0,0,1-.273-2.444V81.6h3.676v6.8a5.26,5.26,0,0,0,.469,2.574,1.874,1.874,0,0,0,1.756.785c.262,0,.545-.011.84-.033s.556-.055.785-.087V81.6H805.6V94.156Z" transform="translate(-746.86 -75.426)"/><path class="b" d="M928.176,43.752c-.327.1-.709.2-1.134.284s-.873.164-1.342.24-.949.12-1.429.164-.949.065-1.4.065a8.118,8.118,0,0,1-2.869-.469,5.59,5.59,0,0,1-3.447-3.469,8.083,8.083,0,0,1-.458-2.8,9.685,9.685,0,0,1,.393-2.858,6.168,6.168,0,0,1,1.135-2.16,4.972,4.972,0,0,1,1.811-1.364,6.043,6.043,0,0,1,2.454-.469,5.818,5.818,0,0,1,1.374.153,7.092,7.092,0,0,1,1.222.425v-5.9L928.165,25V43.752Zm-8.334-6.174a4.477,4.477,0,0,0,.764,2.738,2.652,2.652,0,0,0,2.269,1.036q.491,0,.916-.033a6.433,6.433,0,0,0,.687-.087v-6.7a3.06,3.06,0,0,0-.905-.371,4.359,4.359,0,0,0-1.124-.153C920.714,34.011,919.842,35.2,919.842,37.578Z" transform="translate(-855.284 -25)"/><path class="b" d="M1057.576,43.752c-.327.1-.709.2-1.134.284s-.873.164-1.342.24-.949.12-1.429.164-.949.065-1.4.065a8.117,8.117,0,0,1-2.869-.469,5.59,5.59,0,0,1-3.447-3.469,8.08,8.08,0,0,1-.458-2.8,9.681,9.681,0,0,1,.393-2.858,6.165,6.165,0,0,1,1.135-2.16,4.974,4.974,0,0,1,1.811-1.364,6.045,6.045,0,0,1,2.455-.469,5.819,5.819,0,0,1,1.375.153,7.087,7.087,0,0,1,1.222.425v-5.9l3.676-.589V43.752Zm-8.323-6.174a4.477,4.477,0,0,0,.764,2.738,2.652,2.652,0,0,0,2.269,1.036q.491,0,.916-.033a6.437,6.437,0,0,0,.687-.087v-6.7a3.06,3.06,0,0,0-.906-.371,4.358,4.358,0,0,0-1.123-.153C1050.125,34.011,1049.252,35.2,1049.252,37.578Z" transform="translate(-970.568 -25)"/><path class="b" d="M1180.356,81.511q-1.113,3.763-2.323,7.036-1.211,3.289-2.651,6.371a15.293,15.293,0,0,1-1.036,1.887,6.013,6.013,0,0,1-1.135,1.287,4.008,4.008,0,0,1-1.4.742,6.467,6.467,0,0,1-1.822.24,7.219,7.219,0,0,1-1.593-.164,7.307,7.307,0,0,1-1.2-.36l.643-2.945a7.178,7.178,0,0,0,1.015.273,5.189,5.189,0,0,0,.938.076,2.025,2.025,0,0,0,1.516-.535,4.3,4.3,0,0,0,.906-1.473q-1.26-2.471-2.52-5.542a66.754,66.754,0,0,1-2.367-6.905h3.905c.164.644.36,1.342.578,2.084s.458,1.505.709,2.269.5,1.516.753,2.236.5,1.385.731,1.974c.218-.589.436-1.255.666-1.974s.458-1.473.687-2.236.436-1.527.644-2.269.393-1.44.556-2.084h3.8Z" transform="translate(-1078.993 -75.337)"/></g></g></g></svg>